<?xml version="1.0" encoding="utf-8"?>
<!DOCTYPE svg PUBLIC "-//W3C//DTD SVG 1.1//EN" "http://www.w3.org/Graphics/SVG/1.1/DTD/svg11.dtd">
<svg xmlns="http://www.w3.org/2000/svg" xmlns:xlink="http://www.w3.org/1999/xlink" version="1.1" id="Layer_1" x="0px" y="0px" viewBox="0 0 128 128" enable-background="new 0 0 128 128" xml:space="preserve" width="128px" height="128px">
<g id="DE2rWU.tif" display="none">
	
		
</g>
<path fill="#2C3E50" d="M64,84c-0.8,0-1.5-0.5-1.8-1.2C61.6,81.7,49,53.8,49,31c0-8.3,6.7-15,15-15s15,6.7,15,15  c0,22.8-12.6,50.7-13.2,51.8C65.5,83.5,64.8,84,64,84z M64,20c-6.1,0-11,4.9-11,11c0,16.9,7.5,37.2,11,45.9c3.5-8.7,11-29.1,11-45.9  C75,24.9,70.1,20,64,20z"/>
<path fill="#2C3E50" d="M64,110.5c-6.1,0-11-4.9-11-11s4.9-11,11-11s11,4.9,11,11S70.1,110.5,64,110.5z M64,92.5c-3.9,0-7,3.1-7,7  s3.1,7,7,7s7-3.1,7-7S67.9,92.5,64,92.5z"/>

	
	
	<metadata>
		<rdf:RDF xmlns:rdf="http://www.w3.org/1999/02/22-rdf-syntax-ns#" xmlns:rdfs="http://www.w3.org/2000/01/rdf-schema#" xmlns:dc="http://purl.org/dc/elements/1.1/">
			<rdf:Description about="https://iconscout.com/legal#licenses" dc:title="Alert, Attention, Caution, Danger, Error, Exclamation, Mark, Warning" dc:description="Alert, Attention, Caution, Danger, Error, Exclamation, Mark, Warning" dc:publisher="Iconscout" dc:date="2016-12-14" dc:format="image/svg+xml" dc:language="en">
				<dc:creator>
					<rdf:Bag>
						<rdf:li>Laura Reen</rdf:li>
					</rdf:Bag>
				</dc:creator>
			</rdf:Description>
		</rdf:RDF>
    </metadata></svg>
