<?xml version="1.0" encoding="utf-8"?>
<!DOCTYPE svg PUBLIC "-//W3C//DTD SVG 1.1//EN" "http://www.w3.org/Graphics/SVG/1.1/DTD/svg11.dtd">
<svg xmlns="http://www.w3.org/2000/svg" xmlns:xlink="http://www.w3.org/1999/xlink" version="1.1" id="Layer_1" x="0px" y="0px" viewBox="0 0 128 128" enable-background="new 0 0 128 128" xml:space="preserve" width="128px" height="128px">
<path fill="#3B97D3" d="M64,12c-28.7,0-52,23.3-52,52s23.3,52,52,52s52-23.3,52-52S92.7,12,64,12z M64,112c-26.5,0-48-21.5-48-48  s21.5-48,48-48s48,21.5,48,48S90.5,112,64,112z"/>
<path fill="#2C3E50" d="M51.2,46.3L34.8,62.7c-0.4,0.4-0.6,0.9-0.6,1.4c0,0.6,0.2,1.1,0.6,1.4L51,81.7c0.8,0.8,2,0.8,2.8,0  c0.4-0.4,0.6-0.9,0.6-1.4s-0.2-1.1-0.6-1.4L41.1,66h48.7c1.1,0,2-0.9,2-2s-0.9-2-2-2H41.1L54,49.1c0.4-0.4,0.6-0.9,0.6-1.4  s-0.2-1-0.6-1.4C53.2,45.5,52,45.5,51.2,46.3z"/>

	
	
	<metadata>
		<rdf:RDF xmlns:rdf="http://www.w3.org/1999/02/22-rdf-syntax-ns#" xmlns:rdfs="http://www.w3.org/2000/01/rdf-schema#" xmlns:dc="http://purl.org/dc/elements/1.1/">
			<rdf:Description about="https://iconscout.com/legal#licenses" dc:title="Arrow, Left, Circle, Direction, Move, Prev, Previous, West" dc:description="Arrow, Left, Circle, Direction, Move, Prev, Previous, West" dc:publisher="Iconscout" dc:date="2016-12-14" dc:format="image/svg+xml" dc:language="en">
				<dc:creator>
					<rdf:Bag>
						<rdf:li>Laura Reen</rdf:li>
					</rdf:Bag>
				</dc:creator>
			</rdf:Description>
		</rdf:RDF>
    </metadata></svg>
