<?xml version="1.0" encoding="utf-8"?>
<!DOCTYPE svg PUBLIC "-//W3C//DTD SVG 1.1//EN" "http://www.w3.org/Graphics/SVG/1.1/DTD/svg11.dtd">
<svg xmlns="http://www.w3.org/2000/svg" xmlns:xlink="http://www.w3.org/1999/xlink" version="1.1" id="Layer_1" x="0px" y="0px" width="128px" height="128px" viewBox="0 0 128 128" enable-background="new 0 0 128 128" xml:space="preserve">
<path fill="#2C3E50" d="M66.2,29.7V18c0-1.1-0.9-2-2-2s-2,0.9-2,2v11.7c-1.6,0.8-2.8,2.4-2.8,4.3c0,2.6,2.1,4.8,4.8,4.8  S69,36.6,69,34C69,32.1,67.9,30.4,66.2,29.7z"/>
<path fill="#2C3E50" d="M96.2,29.7V18c0-1.1-0.9-2-2-2s-2,0.9-2,2v11.7c-1.6,0.8-2.8,2.4-2.8,4.3c0,2.6,2.1,4.8,4.8,4.8  S99,36.6,99,34C99,32.1,97.9,30.4,96.2,29.7z"/>
<rect x="38.2" y="23" fill="#2C3E50" width="22" height="4"/>
<rect x="68.2" y="23" fill="#2C3E50" width="22" height="4"/>
<path fill="#2C3E50" d="M36.2,29.7V18c0-1.1-0.9-2-2-2s-2,0.9-2,2v11.7c-1.6,0.8-2.8,2.4-2.8,4.3c0,2.6,2.1,4.8,4.8,4.8  S39,36.6,39,34C39,32.1,37.9,30.4,36.2,29.7z"/>
<path fill="#2C3E50" d="M111,23H98v4h13c3.3,0,6,2.7,6,6v11H11V33c0-3.3,2.7-6,6-6h13v-4H17c-5.5,0-10,4.5-10,10v66  c0,5.5,4.5,10,10,10h94c5.5,0,10-4.5,10-10V33C121,27.5,116.5,23,111,23z M111,105H17c-3.3,0-6-2.7-6-6V48h106v51  C117,102.3,114.3,105,111,105z"/>
<circle fill="#3B97D3" cx="51" cy="60" r="3.3"/>
<circle fill="#3B97D3" cx="38.8" cy="60" r="3.3"/>
<circle fill="#3B97D3" cx="99.8" cy="60" r="3.3"/>
<circle fill="#3B97D3" cx="26.6" cy="71.1" r="3.3"/>
<circle fill="#3B97D3" cx="38.8" cy="71.1" r="3.3"/>
<circle fill="#3B97D3" cx="51" cy="71.1" r="3.3"/>
<circle fill="#3B97D3" cx="63.2" cy="71.1" r="3.3"/>
<circle fill="#3B97D3" cx="75.4" cy="71.1" r="3.3"/>
<circle fill="#3B97D3" cx="87.5" cy="71.1" r="3.3"/>
<circle fill="#3B97D3" cx="38.8" cy="82.3" r="3.3"/>
<circle fill="#3B97D3" cx="51" cy="82.3" r="3.3"/>
<circle fill="#3B97D3" cx="63.2" cy="82.3" r="3.3"/>
<circle fill="#3B97D3" cx="75.4" cy="82.3" r="3.3"/>
<circle fill="#3B97D3" cx="87.5" cy="82.3" r="3.3"/>
<circle fill="#3B97D3" cx="63.2" cy="60.3" r="3.3"/>
<circle fill="#3B97D3" cx="75.4" cy="60.3" r="3.3"/>
<circle fill="#3B97D3" cx="87.5" cy="60.3" r="3.3"/>
<circle fill="#3B97D3" cx="99.7" cy="71.1" r="3.3"/>
<circle fill="#3B97D3" cx="99.8" cy="82.3" r="3.3"/>
<circle fill="#3B97D3" cx="26.6" cy="81.9" r="3.3"/>
<circle fill="#3B97D3" cx="26.6" cy="92.8" r="3.3"/>
<circle fill="#3B97D3" cx="38.8" cy="92.8" r="3.3"/>
<circle fill="#3B97D3" cx="51" cy="92.8" r="3.3"/>
<circle fill="#3B97D3" cx="63.2" cy="92.8" r="3.3"/>

	
	
	<metadata>
		<rdf:RDF xmlns:rdf="http://www.w3.org/1999/02/22-rdf-syntax-ns#" xmlns:rdfs="http://www.w3.org/2000/01/rdf-schema#" xmlns:dc="http://purl.org/dc/elements/1.1/">
			<rdf:Description about="https://iconscout.com/legal#licenses" dc:title="Calendar, Event, Month, Plan, Planning, Schedule, Timetable" dc:description="Calendar, Event, Month, Plan, Planning, Schedule, Timetable" dc:publisher="Iconscout" dc:date="2016-12-14" dc:format="image/svg+xml" dc:language="en">
				<dc:creator>
					<rdf:Bag>
						<rdf:li>Laura Reen</rdf:li>
					</rdf:Bag>
				</dc:creator>
			</rdf:Description>
		</rdf:RDF>
    </metadata></svg>
