<?xml version="1.0" encoding="utf-8"?>
<!DOCTYPE svg PUBLIC "-//W3C//DTD SVG 1.1//EN" "http://www.w3.org/Graphics/SVG/1.1/DTD/svg11.dtd">
<svg xmlns="http://www.w3.org/2000/svg" xmlns:xlink="http://www.w3.org/1999/xlink" version="1.1" id="Layer_1" x="0px" y="0px" viewBox="0 0 128 128" enable-background="new 0 0 128 128" xml:space="preserve" width="128px" height="128px">
<path fill="#3B97D3" d="M32.1,98H18c-3.3,0-6-2.7-6-6V37c0-3.3,2.7-6,6-6h12.8c1.9-1.5,3.9-2.8,6-4H18c-5.5,0-10,4.5-10,10v55  c0,5.5,4.5,10,10,10h20.7C36.4,100.9,34.2,99.5,32.1,98z"/>
<path fill="#3B97D3" d="M109,27H77.2c2.1,1.2,4.1,2.5,6,4H109c3.3,0,6,2.7,6,6v55c0,3.3-2.7,6-6,6H81.9c-2.1,1.5-4.3,2.9-6.6,4H109  c5.5,0,10-4.5,10-10V37C119,31.5,114.5,27,109,27z"/>
<path fill="#2C3E50" d="M57,27.8c19.9,0,36.2,16.2,36.2,36.2S76.9,100.2,57,100.2S20.8,83.9,20.8,64S37.1,27.8,57,27.8 M57,23.8  c-22.1,0-40.2,18-40.2,40.2s18,40.2,40.2,40.2s40.2-18,40.2-40.2S79.1,23.8,57,23.8L57,23.8z"/>
<path fill="#3B97D3" d="M57,39.2c13.7,0,24.8,11.1,24.8,24.8S70.7,88.8,57,88.8S32.2,77.7,32.2,64S43.3,39.2,57,39.2 M57,35.2  c-15.9,0-28.8,12.9-28.8,28.8S41.1,92.8,57,92.8S85.8,79.9,85.8,64S72.9,35.2,57,35.2L57,35.2z"/>
<path fill="#2C3E50" d="M84,25v-2.3c0-1.1,1.2-1.7,2.3-1.7H102c1.1,0,2,0.6,2,1.7V25h4v-2.3c0-3.3-2.7-5.7-6-5.7H86.3  C83,17,80,19.4,80,22.7V25H84z"/>
<path fill="#3B97D3" d="M64,47.5c-4.5,0-8.2,3.7-8.2,8.2S59.5,64,64,64s8.2-3.7,8.2-8.2S68.5,47.5,64,47.5z M64,62  c-3.4,0-6.2-2.8-6.2-6.2s2.8-6.2,6.2-6.2s6.2,2.8,6.2,6.2S67.4,62,64,62z"/>
<path display="none" d="M69.2,66c-4,0-7.2-3.3-7.2-7.2s3.3-7.2,7.2-7.2s7.2,3.3,7.2,7.2S73.2,66,69.2,66z M69.2,55.5  c-1.8,0-3.2,1.5-3.2,3.2s1.5,3.2,3.2,3.2s3.2-1.5,3.2-3.2S71,55.5,69.2,55.5z"/>
<circle fill="#3B97D3" cx="103.7" cy="41" r="4.3"/>
<g>
	<rect x="89" y="21" fill="#2C3E50" width="2" height="4"/>
</g>
<g>
	<rect x="97" y="21" fill="#2C3E50" width="2" height="4"/>
</g>

	
	
	<metadata>
		<rdf:RDF xmlns:rdf="http://www.w3.org/1999/02/22-rdf-syntax-ns#" xmlns:rdfs="http://www.w3.org/2000/01/rdf-schema#" xmlns:dc="http://purl.org/dc/elements/1.1/">
			<rdf:Description about="https://iconscout.com/legal#licenses" dc:title="Camera, Digital, Image, Photo, Photography, Photos, Picture" dc:description="Camera, Digital, Image, Photo, Photography, Photos, Picture" dc:publisher="Iconscout" dc:date="2016-12-14" dc:format="image/svg+xml" dc:language="en">
				<dc:creator>
					<rdf:Bag>
						<rdf:li>Laura Reen</rdf:li>
					</rdf:Bag>
				</dc:creator>
			</rdf:Description>
		</rdf:RDF>
    </metadata></svg>
