<?xml version="1.0" encoding="utf-8"?>
<!DOCTYPE svg PUBLIC "-//W3C//DTD SVG 1.1//EN" "http://www.w3.org/Graphics/SVG/1.1/DTD/svg11.dtd">
<svg xmlns="http://www.w3.org/2000/svg" xmlns:xlink="http://www.w3.org/1999/xlink" version="1.1" id="Layer_1" x="0px" y="0px" viewBox="0 0 128 128" enable-background="new 0 0 128 128" xml:space="preserve" width="128px" height="128px">
<path fill="#3B97D3" d="M64,13.5c-28.7,0-52,23.3-52,52s23.3,52,52,52s52-23.3,52-52S92.7,13.5,64,13.5z M64,113.5  c-26.5,0-48-21.5-48-48s21.5-48,48-48s48,21.5,48,48S90.5,113.5,64,113.5z"/>
<path fill="#2C3E50" d="M88,60c3.3,0,6,2.7,6,6c0,3.3-2.7,6-6,6H40c-3.3,0-6-2.7-6-6s2.7-6,6-6 M40,58c-4.4,0-8,3.6-8,8s3.6,8,8,8  h48c4.4,0,8-3.6,8-8s-3.6-8-8-8H40z"/>

	
	
	<metadata>
		<rdf:RDF xmlns:rdf="http://www.w3.org/1999/02/22-rdf-syntax-ns#" xmlns:rdfs="http://www.w3.org/2000/01/rdf-schema#" xmlns:dc="http://purl.org/dc/elements/1.1/">
			<rdf:Description about="https://iconscout.com/legal#licenses" dc:title="Cancel, Circle, Delete, Minus, Remove, Subtract, Trash" dc:description="Cancel, Circle, Delete, Minus, Remove, Subtract, Trash" dc:publisher="Iconscout" dc:date="2016-12-14" dc:format="image/svg+xml" dc:language="en">
				<dc:creator>
					<rdf:Bag>
						<rdf:li>Laura Reen</rdf:li>
					</rdf:Bag>
				</dc:creator>
			</rdf:Description>
		</rdf:RDF>
    </metadata></svg>
