<?xml version="1.0" encoding="utf-8"?>
<!DOCTYPE svg PUBLIC "-//W3C//DTD SVG 1.1//EN" "http://www.w3.org/Graphics/SVG/1.1/DTD/svg11.dtd">
<svg xmlns="http://www.w3.org/2000/svg" xmlns:xlink="http://www.w3.org/1999/xlink" version="1.1" id="Layer_1" x="0px" y="0px" width="128px" height="128px" viewBox="0 0 128 128" enable-background="new 0 0 128 128" xml:space="preserve">
<path fill="#3B97D3" d="M82,82v4c0,3.3-2.7,6-6,6H40.4H39L38,92.8l-13,10V96v-4h-4h-4c-3.3,0-6-2.7-6-6V44c0-3.3,2.7-6,6-6h23v-4H17  c-5.5,0-10,4.5-10,10v42c0,5.5,4.5,10,10,10h4v15l19.4-15H76c5.5,0,10-4.5,10-10v-4H82z"/>
<path fill="#2C3E50" d="M111,22c3.3,0,6,2.7,6,6v42c0,3.3-2.7,6-6,6h-4h-4v4v6.9l-13-10L89,76h-1.4H52c-3.3,0-6-2.7-6-6V28  c0-3.3,2.7-6,6-6H111 M111,18H52c-5.5,0-10,4.5-10,10v42c0,5.5,4.5,10,10,10h35.6L107,95V80h4c5.5,0,10-4.5,10-10V28  C121,22.5,116.5,18,111,18L111,18z"/>

	
	
	<metadata>
		<rdf:RDF xmlns:rdf="http://www.w3.org/1999/02/22-rdf-syntax-ns#" xmlns:rdfs="http://www.w3.org/2000/01/rdf-schema#" xmlns:dc="http://purl.org/dc/elements/1.1/">
			<rdf:Description about="https://iconscout.com/legal#licenses" dc:title="Chat, Communication, Conversation, Dialogue, Help, Desk, Message, Bubbles, Online, Support" dc:description="Chat, Communication, Conversation, Dialogue, Help, Desk, Message, Bubbles, Online, Support" dc:publisher="Iconscout" dc:date="2016-12-14" dc:format="image/svg+xml" dc:language="en">
				<dc:creator>
					<rdf:Bag>
						<rdf:li>Laura Reen</rdf:li>
					</rdf:Bag>
				</dc:creator>
			</rdf:Description>
		</rdf:RDF>
    </metadata></svg>
