<?xml version="1.0" encoding="utf-8"?>
<!DOCTYPE svg PUBLIC "-//W3C//DTD SVG 1.1//EN" "http://www.w3.org/Graphics/SVG/1.1/DTD/svg11.dtd">
<svg xmlns="http://www.w3.org/2000/svg" xmlns:xlink="http://www.w3.org/1999/xlink" version="1.1" id="Layer_1" x="0px" y="0px" width="128px" height="128px" viewBox="0 0 128 128" enable-background="new 0 0 128 128" xml:space="preserve">
<path fill="#3B97D3" d="M90.6,45c-2.6,0-5,0.3-7.4,0.9c-1.8-11.9-11.9-21-24.3-21c-13.6,0-24.6,11-24.6,24.6c0,1.8,0.2,3.6,0.6,5.4  c-0.1,0-0.3,0-0.4,0C21,54.9,10,65.9,10,79.4c0,13.5,10.9,24.4,24.4,24.4h56.1c16.2,0,29.4-13.2,29.4-29.4  C120,58.2,106.8,45,90.6,45z M90.6,99.8H34.5C23.2,99.8,14,90.6,14,79.4c0-11.3,9.1-20.4,20.4-20.4c0,0,0,0,0,0c0.1,0,0.3,0,0.4,0  l5.1,0.1l-1.1-5c-0.3-1.5-0.5-3-0.5-4.5c0-11.4,9.2-20.6,20.6-20.6c10.1,0,18.9,7.5,20.3,17.6l0.1,0.9c-5,2.3-9.3,5.9-12.4,10.4  l3.3,2.3C74.8,53.7,82.1,49,90.6,49v0c14,0,25.4,11.4,25.4,25.4C116,88.4,104.6,99.8,90.6,99.8z"/>

	
	
	<metadata>
		<rdf:RDF xmlns:rdf="http://www.w3.org/1999/02/22-rdf-syntax-ns#" xmlns:rdfs="http://www.w3.org/2000/01/rdf-schema#" xmlns:dc="http://purl.org/dc/elements/1.1/">
			<rdf:Description about="https://iconscout.com/legal#licenses" dc:title="Cloud, Connection, Network, Share, Sharing, Upload, Weather" dc:description="Cloud, Connection, Network, Share, Sharing, Upload, Weather" dc:publisher="Iconscout" dc:date="2016-12-14" dc:format="image/svg+xml" dc:language="en">
				<dc:creator>
					<rdf:Bag>
						<rdf:li>Laura Reen</rdf:li>
					</rdf:Bag>
				</dc:creator>
			</rdf:Description>
		</rdf:RDF>
    </metadata></svg>
