<?xml version="1.0" encoding="utf-8"?>
<!DOCTYPE svg PUBLIC "-//W3C//DTD SVG 1.1//EN" "http://www.w3.org/Graphics/SVG/1.1/DTD/svg11.dtd">
<svg xmlns="http://www.w3.org/2000/svg" xmlns:xlink="http://www.w3.org/1999/xlink" version="1.1" id="Layer_1" x="0px" y="0px" width="128px" height="128px" viewBox="0 0 128 128" enable-background="new 0 0 128 128" xml:space="preserve">
<path fill="#2C3E50" d="M111,18c3.3,0,6,2.7,6,6v66c0,3.3-2.7,6-6,6H18c-3.3,0-6-2.7-6-6V24c0-3.3,2.7-6,6-6H111 M111,14H18  c-5.5,0-10,4.5-10,10v66c0,5.5,4.5,10,10,10h93c5.5,0,10-4.5,10-10V24C121,18.5,116.5,14,111,14L111,14z"/>
<circle fill="#2C3E50" cx="65" cy="88" r="3"/>
<path fill="#2C3E50" d="M83.5,113H67v-8.5c0-1.1-0.9-2-2-2s-2,0.9-2,2v8.5H46.5c-1.1,0-2,0.9-2,2s0.9,2,2,2h37c1.1,0,2-0.9,2-2  S84.6,113,83.5,113z"/>
<path fill="#3B97D3" d="M108,27v51H21V27H108 M110,25H19v55h91V25L110,25z"/>

	
	
	<metadata>
		<rdf:RDF xmlns:rdf="http://www.w3.org/1999/02/22-rdf-syntax-ns#" xmlns:rdfs="http://www.w3.org/2000/01/rdf-schema#" xmlns:dc="http://purl.org/dc/elements/1.1/">
			<rdf:Description about="https://iconscout.com/legal#licenses" dc:title="Computer, Desktop, Device, Display, Mac, Monitor, PC" dc:description="Computer, Desktop, Device, Display, Mac, Monitor, PC" dc:publisher="Iconscout" dc:date="2016-12-14" dc:format="image/svg+xml" dc:language="en">
				<dc:creator>
					<rdf:Bag>
						<rdf:li>Laura Reen</rdf:li>
					</rdf:Bag>
				</dc:creator>
			</rdf:Description>
		</rdf:RDF>
    </metadata></svg>
