<?xml version="1.0" encoding="utf-8"?>
<!DOCTYPE svg PUBLIC "-//W3C//DTD SVG 1.1//EN" "http://www.w3.org/Graphics/SVG/1.1/DTD/svg11.dtd">
<svg xmlns="http://www.w3.org/2000/svg" xmlns:xlink="http://www.w3.org/1999/xlink" version="1.1" id="Layer_1" x="0px" y="0px" width="128px" height="128px" viewBox="0 0 128 128" enable-background="new 0 0 128 128" xml:space="preserve">
<path fill="#2C3E50" d="M63,7.8c-20.3,0-36.8,16.5-36.8,36.8c0,36.8,36.8,58.7,36.8,58.7S99.8,84,99.8,44.6  C99.8,24.2,83.3,7.8,63,7.8z M63.1,98.5c-7.3-5-32.9-24.7-32.9-54c0-18.1,14.7-32.8,32.8-32.8s32.8,14.7,32.8,32.8  C95.8,75.9,70.5,93.9,63.1,98.5z"/>
<path fill="#2C3E50" d="M63,21c13.2,0,24,10.8,24,24S76.2,69,63,69S39,58.2,39,45S49.8,21,63,21 M63,19c-14.4,0-26,11.6-26,26  s11.6,26,26,26s26-11.6,26-26S77.4,19,63,19L63,19z"/>
<path fill="#3B97D3" d="M89.5,81.8c-0.4,0.6-0.8,1.2-1.3,1.7c15.1,3.3,24.2,9.3,24.2,15c0,8.4-19.8,17.5-49.4,17.5  s-49.4-9-49.4-17.5c0-5.8,9.3-11.8,24.6-15.1c-0.4-0.6-0.9-1.1-1.3-1.7c-15.2,3.4-25.3,9.6-25.3,16.8c0,10.8,23,19.5,51.4,19.5  s51.4-8.7,51.4-19.5C114.5,91.4,104.5,85.2,89.5,81.8z"/>

	
	
	<metadata>
		<rdf:RDF xmlns:rdf="http://www.w3.org/1999/02/22-rdf-syntax-ns#" xmlns:rdfs="http://www.w3.org/2000/01/rdf-schema#" xmlns:dc="http://purl.org/dc/elements/1.1/">
			<rdf:Description about="https://iconscout.com/legal#licenses" dc:title="Direction, Location, Map, Marker, Navigation, Pin, Pointer" dc:description="Direction, Location, Map, Marker, Navigation, Pin, Pointer" dc:publisher="Iconscout" dc:date="2016-12-14" dc:format="image/svg+xml" dc:language="en">
				<dc:creator>
					<rdf:Bag>
						<rdf:li>Laura Reen</rdf:li>
					</rdf:Bag>
				</dc:creator>
			</rdf:Description>
		</rdf:RDF>
    </metadata></svg>
