<?xml version="1.0" encoding="utf-8"?>
<!DOCTYPE svg PUBLIC "-//W3C//DTD SVG 1.1//EN" "http://www.w3.org/Graphics/SVG/1.1/DTD/svg11.dtd">
<svg xmlns="http://www.w3.org/2000/svg" xmlns:xlink="http://www.w3.org/1999/xlink" version="1.1" id="Layer_1" x="0px" y="0px" width="128px" height="128px" viewBox="0 0 128 128" enable-background="new 0 0 128 128" xml:space="preserve">
<path fill="#2C3E50" d="M106.4,24.6l-16-16C90,8.2,89.5,8,89,8H31.5C26,8,21,12,21,17.5v90c0,5.5,5,10.5,10.5,10.5h66  c5.5,0,9.5-5,9.5-10.5V26C107,25.5,106.8,25,106.4,24.6z M91,14.8l9.2,9.2h-3.7c-3.3,0-5.5-2.2-5.5-5.5V14.8z M103,107.5  c0,3.3-2.2,6.5-5.5,6.5h-66c-3.3,0-6.5-3.2-6.5-6.5v-90c0-3.3,3.2-5.5,6.5-5.5H87v6.5c0,5.5,4,9.5,9.5,9.5h6.5V107.5z"/>

	
	
	<metadata>
		<rdf:RDF xmlns:rdf="http://www.w3.org/1999/02/22-rdf-syntax-ns#" xmlns:rdfs="http://www.w3.org/2000/01/rdf-schema#" xmlns:dc="http://purl.org/dc/elements/1.1/">
			<rdf:Description about="https://iconscout.com/legal#licenses" dc:title="Document, File, Filetype, Type, Page, Paper, Resume, Sheet" dc:description="Document, File, Filetype, Type, Page, Paper, Resume, Sheet" dc:publisher="Iconscout" dc:date="2016-12-14" dc:format="image/svg+xml" dc:language="en">
				<dc:creator>
					<rdf:Bag>
						<rdf:li>Laura Reen</rdf:li>
					</rdf:Bag>
				</dc:creator>
			</rdf:Description>
		</rdf:RDF>
    </metadata></svg>
