<?xml version="1.0" encoding="utf-8"?>
<!DOCTYPE svg PUBLIC "-//W3C//DTD SVG 1.1//EN" "http://www.w3.org/Graphics/SVG/1.1/DTD/svg11.dtd">
<svg xmlns="http://www.w3.org/2000/svg" xmlns:xlink="http://www.w3.org/1999/xlink" version="1.1" id="Layer_1" x="0px" y="0px" viewBox="0 0 128 128" enable-background="new 0 0 128 128" xml:space="preserve" width="128px" height="128px">
<path fill="#2C3E50" d="M73.2,51.7c-1.3-1.4-4.7-0.5-6,0.6c-1.3,1.1-10.1,7-10.1,7s-6.1-0.1-9-0.1c-3,0-2.9,2-1.3,2.4  c1.6,0.4,3.5,1.6,3.5,1.6l-6.4,4.4c0,0-3.5-0.8-6.9-1.5c-3.4-0.7-4,1.2-2.3,2.3c1.7,1.1,9,5.4,9,5.4l9.7-5c0,0,0.2,2.7,0.2,4.1  c0,1.4,1.5,3.5,2.8,1c1.3-2.5,4.1-9.3,4.1-9.3s9.1-6.9,10.8-8.3C72.9,54.8,74.4,53.2,73.2,51.7z M69.9,54.7  C68.3,56.1,59.3,63,59.2,63l-0.4,0.3l-0.2,0.5c0,0.1-1.7,4.2-3.1,7.1c-0.1-1.2-0.2-2.3-0.2-2.4L55,65.7l-11.3,5.8  c-1.2-0.7-3.4-2-5.2-3.1c2.7,0.5,4.9,1.1,5,1.1l0.9,0.2l9.6-6.6l-2.6-1.6c-0.1,0-0.2-0.1-0.5-0.3c2.9,0,6.2,0.1,6.2,0.1l0.6,0  l0.5-0.4c0.9-0.6,8.9-6,10.2-7.1c0.3-0.3,1.3-0.7,2.3-0.8c0.4,0,0.7,0,0.8,0C71.4,53.3,71,53.8,69.9,54.7z"/>
<path fill="#3B97D3" d="M19.8,18.6l8.4,90.1c0.2,2.2,2.2,3.8,4.4,3.6l51-4.7c2.2-0.2,3.8-2.2,3.6-4.4l-8.4-90.1  c-0.2-2.2-2.2-3.8-4.4-3.6l-51,4.7C21.2,14.4,19.6,16.4,19.8,18.6z M74.8,13.4l8.4,90.1l-51,4.7l-8.4-90.1L74.8,13.4z"/>
<circle fill="#3B97D3" cx="71.7" cy="40.5" r="3"/>
<circle fill="#3B97D3" cx="63.8" cy="41.2" r="3"/>
<circle fill="#3B97D3" cx="55.8" cy="42" r="3"/>
<circle fill="#3B97D3" cx="47.8" cy="42.7" r="3"/>
<circle fill="#3B97D3" cx="39.9" cy="43.4" r="3"/>
<circle fill="#3B97D3" cx="31.9" cy="44.2" r="3"/>
<path fill="#3B97D3" d="M72.8,84.3l-33.4,3.1c-0.5,0.1-1-0.4-1.1-0.9c-0.1-0.5,0.4-1,0.9-1.1l33.4-3.1c0.5-0.1,1,0.4,1.1,0.9  C73.7,83.8,73.3,84.3,72.8,84.3z"/>
<path fill="#3B97D3" d="M73.3,90.3L40,93.4c-0.5,0.1-1-0.4-1.1-0.9c-0.1-0.5,0.4-1,0.9-1.1l33.4-3.1c0.5-0.1,1,0.4,1.1,0.9  C74.3,89.8,73.9,90.2,73.3,90.3z"/>
<path fill="#3B97D3" d="M67.5,27.6l-33.4,3.1c-0.5,0.1-1-0.4-1.1-0.9c-0.1-0.5,0.4-1,0.9-1.1l33.4-3.1c0.5-0.1,1,0.4,1.1,0.9  C68.4,27,68,27.5,67.5,27.6z"/>
<path fill="#3B97D3" d="M73.9,96.3l-33.4,3.1c-0.5,0.1-1-0.4-1.1-0.9c-0.1-0.5,0.4-1,0.9-1.1l33.4-3.1c0.5-0.1,1,0.4,1.1,0.9  C74.8,95.7,74.4,96.2,73.9,96.3z"/>
<path fill="#3B97D3" d="M98.7,19.1l-17.4-0.9l0.4,4l16.9,0.9l-4.8,90.4l-32.9-1.8l-21,2c0.7,0.6,1.5,1,2.5,1.1l51.2,2.7  c2.2,0.1,4.1-1.6,4.2-3.8l4.8-90.4C102.6,21.1,100.9,19.2,98.7,19.1z"/>

	
	
	<metadata>
		<rdf:RDF xmlns:rdf="http://www.w3.org/1999/02/22-rdf-syntax-ns#" xmlns:rdfs="http://www.w3.org/2000/01/rdf-schema#" xmlns:dc="http://purl.org/dc/elements/1.1/">
			<rdf:Description about="https://iconscout.com/legal#licenses" dc:title="Passport, Visa, Ticket, Vacation, Flight, Pass" dc:description="Passport, Visa, Ticket, Vacation, Flight, Pass" dc:publisher="Iconscout" dc:date="2016-12-14" dc:format="image/svg+xml" dc:language="en">
				<dc:creator>
					<rdf:Bag>
						<rdf:li>Laura Reen</rdf:li>
					</rdf:Bag>
				</dc:creator>
			</rdf:Description>
		</rdf:RDF>
    </metadata></svg>
